<svg width="833" height="643" viewBox="0 0 833 643" fill="none" xmlns="http://www.w3.org/2000/svg">
<path opacity="0.8" fill-rule="evenodd" clip-rule="evenodd" d="M177.071 0H176.979L176.893 0.0329741L95.1176 31.3L95.0403 31.3295L94.9767 31.3824L0.37396 109.951L0 110.261L0.299921 110.644L415.483 640.223V641.073V642.521L416.377 641.381L416.384 641.372L416.392 641.381L417.285 642.521V641.073V640.223L832.469 110.644L832.769 110.261L832.395 109.951L737.792 31.3824L737.728 31.3295L737.651 31.3L655.876 0.0329741L655.789 0H655.697H416.785H415.983H177.071ZM415.983 1H184.771L416.384 31.2105L647.998 1H416.785H415.983ZM417.285 180.491V33.0403L560.005 110.314L417.285 180.491ZM417.285 637.205V182.188H635.661L417.285 637.205ZM415.483 33.0403L272.764 110.314L415.483 180.491V33.0403ZM415.483 182.188H197.107L415.483 637.205V182.188ZM98.0039 31.267L177.132 1.01214L409.086 31.267H98.0039ZM97.6474 32.267H414.811L271.653 109.778L97.6474 32.267ZM2.07804 109.835H269.323L95.3765 32.3502L2.07804 109.835ZM414.352 637.159L2.16756 111.405L195.95 182.088L414.352 637.159ZM197.568 181.188H414.635L271.765 110.937L197.568 181.188ZM3.52332 110.835L196.193 181.113L270.419 110.835H3.52332ZM734.765 31.267L655.637 1.01214L423.683 31.267H734.765ZM735.121 32.267H417.957L561.116 109.778L735.121 32.267ZM830.69 109.835H563.446L737.392 32.3502L830.69 109.835ZM418.416 637.159L830.601 111.405L636.819 182.088L418.416 637.159ZM635.201 181.188H418.134L561.003 110.937L635.201 181.188ZM829.245 110.835L636.575 181.113L562.35 110.835H829.245Z" fill="#EEEEEE"/>
</svg>
