<svg width="456" height="352" viewBox="0 0 456 352" fill="none" xmlns="http://www.w3.org/2000/svg">
<path opacity="0.8" fill-rule="evenodd" clip-rule="evenodd" d="M97.0343 0H96.942L96.8558 0.0329741L52.1886 17.1116L52.1113 17.1411L52.0477 17.194L0.37396 60.1095L0 60.42L0.299921 60.8026L227.033 350.007V350.393V351.841L227.751 350.924L228.47 351.841V350.393V350.007L455.203 60.8026L455.503 60.42L455.129 60.1095L403.455 17.194L403.392 17.1411L403.314 17.1116L358.647 0.0329741L358.561 0H358.469H227.97H227.533H97.0343ZM227.533 1H104.733L227.751 17.0458L350.769 1H227.97H227.533ZM228.47 98.4501V18.655L305.705 60.4727L228.47 98.4501ZM228.47 347.283V99.9684H347.164L228.47 347.283ZM227.033 18.655L149.798 60.4727L227.033 98.4501V18.655ZM227.033 99.9684H108.339L227.033 347.283V99.9684ZM55.0749 17.0786L97.0949 1.01214L220.271 17.0786H55.0749ZM54.7184 18.0786H225.997L148.687 59.9372L54.7184 18.0786ZM2.07804 59.9941H146.357L52.4476 18.1618L2.07804 59.9941ZM225.538 346.479L2.16756 61.564L107.182 99.8683L225.538 346.479ZM108.8 98.9684H225.82L148.799 61.0962L108.8 98.9684ZM147.453 60.9941L107.425 98.8927L3.52333 60.9941H147.453ZM400.428 17.0786L358.408 1.01214L235.232 17.0786H400.428ZM400.784 18.0786H229.506L306.816 59.9372L400.784 18.0786ZM453.425 59.9941H309.146L403.055 18.1618L453.425 59.9941ZM229.965 346.479L453.335 61.564L348.321 99.8683L229.965 346.479ZM346.703 98.9684H229.683L306.703 61.0962L346.703 98.9684ZM308.05 60.9941L348.078 98.8927L451.98 60.9941H308.05Z" fill="#EEEEEE"/>
</svg>
